<svg width="20" height="20" viewBox="0 0 20 20" fill="none" xmlns="http://www.w3.org/2000/svg">
<path d="M11.4169 7.76472L11.2907 8.36719H11.9062H16.3906C16.8882 8.36719 17.2939 8.76169 17.3119 9.25487L17.3105 9.2638L17.272 9.51426L17.3125 9.55479V10.707C17.3125 10.8151 17.2904 10.9236 17.2469 11.0399L15.1106 16.0378L15.1098 16.0396C14.9702 16.3695 14.643 16.6016 14.2617 16.6016H7.87109C7.36208 16.6016 6.94922 16.1887 6.94922 15.6797V8.57812C6.94922 8.32704 7.05173 8.09602 7.21837 7.92624C7.21875 7.92585 7.21914 7.92546 7.21952 7.92506L11.541 3.59996L11.9433 3.99808C11.9436 3.99834 11.9438 3.99859 11.9441 3.99884C12.0454 4.10058 12.1094 4.24421 12.1094 4.39844C12.1094 4.44314 12.1049 4.48079 12.0978 4.51263L12.0978 4.51262L12.0965 4.51862L11.4169 7.76472ZM4.52734 9.07812V12.8398V16.6016H2.6875V9.07812H4.52734Z" stroke="black"/>
</svg>
