<svg width="14" height="16" viewBox="0 0 14 16" fill="none" xmlns="http://www.w3.org/2000/svg">
<path d="M6.42857 0.857422C6.28571 0.857422 6.14286 0.92885 6 1.00028L0.357143 4.14314C0.142857 4.28599 0 4.50028 0 4.78599V11.2146C0 11.5003 0.142857 11.7146 0.357143 11.8574L6 15.0003C6.14286 15.0717 6.28571 15.1431 6.42857 15.1431C6.57143 15.1431 6.71429 15.0717 6.85714 15.0003L7.5 14.6431C7.28571 14.2146 7.21429 13.7146 7.14286 13.2146V8.42885L11.4286 6.00028V8.71457C11.9286 8.71457 12.4286 8.78599 12.8571 8.92885V4.78599C12.8571 4.50028 12.7143 4.28599 12.5 4.14314L6.85714 1.00028C6.71429 0.92885 6.57143 0.857422 6.42857 0.857422ZM6.42857 2.42885L10.7143 4.78599L9.28571 5.57171L5.07143 3.14314L6.42857 2.42885ZM3.64286 3.92885L7.85714 6.42885L6.42857 7.21457L2.14286 4.78599L3.64286 3.92885ZM1.42857 6.00028L5.71429 8.42885V13.2146L1.42857 10.786V6.00028ZM13.0714 10.7146L10.5 13.286L9.35714 12.1431L8.57143 13.0003L10.5714 15.1431L14 11.7146L13.0714 10.7146Z" fill="#475467"/>
</svg>
